PathFileType  4	(X/Y/Z) C:\Users\antoi\Documents\MyRepositories\mobilecap\ResultsAnalysis
DataRate	CameraRate	NumFrames	NumMarkers	Units	OrigDataRate	OrigDataStartFrame	OrigNumFrames
100.0	100.0	7	51	mm	100.0	18	141
Frame#	Time	r_knee			r_shank_antsup			r_ankle			r_calc			r_5meta			r_toe			L_knee			L_shank_antsup			L_ankle			L_calc			L_5meta			L_toe			r_sh2			r_sh3			r_sh4			L_sh2			L_sh3			r_thigh1			r_thigh2			r_thigh3			r_thigh4			r_thigh5			L_thigh1			L_thigh2			L_thigh3			L_thigh4			r.ASIS			r.PSIS			L.ASIS			L.PSIS			C7			R_Shoulder			L_Shoulder			R_Sternum			L_Sternum			R_humerus			R_elbow_med			R_elbow_lat			R_forearm			R_wrist_radius			R_wrist_ulna			L_humerus			L_elbow_med			L_elbow_lat			L_forearm			L_wrist_radius			L_wrist_ulna			R_HJC			L_HJC			R_HJC_reg			L_HJC_reg			
		X1	Y1	Z1	X2	Y2	Z2	X3	Y3	Z3	X4	Y4	Z4	X5	Y5	Z5	X6	Y6	Z6	X7	Y7	Z7	X8	Y8	Z8	X9	Y9	Z9	X10	Y10	Z10	X11	Y11	Z11	X12	Y12	Z12	X13	Y13	Z13	X14	Y14	Z14	X15	Y15	Z15	X16	Y16	Z16	X17	Y17	Z17	X18	Y18	Z18	X19	Y19	Z19	X20	Y20	Z20	X21	Y21	Z21	X22	Y22	Z22	X23	Y23	Z23	X24	Y24	Z24	X25	Y25	Z25	X26	Y26	Z26	X27	Y27	Z27	X28	Y28	Z28	X29	Y29	Z29	X30	Y30	Z30	X31	Y31	Z31	X32	Y32	Z32	X33	Y33	Z33	X34	Y34	Z34	X35	Y35	Z35	X36	Y36	Z36	X37	Y37	Z37	X38	Y38	Z38	X39	Y39	Z39	X40	Y40	Z40	X41	Y41	Z41	X42	Y42	Z42	X43	Y43	Z43	X44	Y44	Z44	X45	Y45	Z45	X46	Y46	Z46	X47	Y47	Z47	X48	Y48	Z48	X49	Y49	Z49	X50	Y50	Z50	X51	Y51	Z51	

18	0.17000000	152.61414	498.51958	-106.27242	202.23447	406.72371	-121.34857	147.78886	89.02273	-135.38371	85.59284	58.78862	-184.71138	268.34288	44.75476	-101.45426	300.00627	75.58537	-158.11604	-34.50711	450.44676	-384.80943	-71.05191	360.48987	-370.71495	-378.18990	230.40228	-349.97044	-437.43151	285.64306	-296.57346	-411.37548	106.46081	-375.46016	-361.46033	76.43629	-325.93602	204.47525	293.87048	-128.51449	143.70444	401.42797	-73.85587	139.11262	286.57202	-76.22004	-106.28103	432.80875	-407.03148	-212.01734	372.14078	-408.33294	105.42964	777.69373	-72.61071	148.67313	677.83978	-94.08639	114.59258	630.96829	-58.19115	14.86191	731.35601	-42.57557	58.40907	626.88514	-67.00607	59.66901	696.77594	-394.83058	68.26171	558.51528	-375.84264	-43.63585	686.39427	-429.19889	-38.84044	555.94277	-399.44092	79.70253	944.86159	-109.65390	-130.58529	961.66088	-203.36127	84.00039	919.89959	-362.23962	-120.78203	956.55375	-299.67217	-106.76215	1413.89362	-201.56017	-51.01684	1347.49041	-35.53836	-2.74189	1410.52848	-347.94001	18.80361	1341.32620	-172.91182	25.64839	1350.67530	-217.07026	-12.94150	1211.54941	0.03442	-89.28943	1020.30281	-76.30246	-95.13154	1024.16230	-8.55882	-49.90589	955.76192	20.67353	2.87372	792.15781	-5.55068	-43.25218	791.34845	19.40902	41.30116	1279.20903	-419.52992	-35.82176	1076.62088	-411.89992	1.48093	1095.99947	-480.00235	57.54840	1041.72568	-479.58521	106.86183	870.50553	-461.13317	86.09672	876.47926	-507.46235	-4.42638	852.93100	-131.67614	5.03590	835.88177	-320.25025	4.41647	856.26863	-148.11063	21.36657	847.42307	-314.56698	
19	0.18000000	158.67330	498.16495	-105.10808	206.97931	405.72355	-120.02337	147.82271	88.98702	-135.65206	85.64668	58.83134	-184.76398	268.33055	44.65172	-101.30227	300.09826	75.14888	-158.09410	-8.23105	451.08469	-384.64432	-44.96426	361.39891	-370.35410	-353.57931	236.03649	-349.50964	-413.00324	290.45813	-295.23575	-386.31171	113.02021	-377.19712	-336.65252	82.04371	-328.01365	207.47378	292.87892	-127.50727	147.71297	401.31798	-73.38606	141.24308	286.50328	-76.12398	-79.06288	434.24233	-406.36850	-185.73623	375.08719	-407.78811	116.15244	778.25253	-71.00025	157.94102	677.40993	-92.85358	122.76102	631.30238	-57.15879	24.91337	733.31478	-42.21972	66.57624	628.07309	-66.24263	78.03343	699.83554	-393.30513	90.82543	561.80018	-374.69282	-24.93497	686.36276	-428.22404	-15.99082	555.99407	-399.04624	91.48272	947.21537	-108.23061	-118.44317	963.62325	-202.73230	96.35244	922.56697	-360.69732	-108.46571	957.81855	-298.91856	-93.85367	1416.35488	-200.25277	-37.99716	1349.66964	-34.26608	10.19509	1412.91553	-346.57637	31.68090	1343.50243	-171.63225	38.58209	1352.84547	-215.79755	0.80488	1213.76192	0.74781	-75.05655	1022.35137	-75.13987	-80.38910	1026.07403	-7.43930	-34.50035	957.82547	21.40593	18.70454	794.24056	-5.77606	-26.95880	793.44973	20.24234	54.04022	1281.51062	-418.18347	-24.02661	1079.24914	-411.06758	13.24912	1098.59710	-479.19976	68.97883	1044.12266	-479.17066	117.61162	872.58656	-461.09866	96.96565	878.84552	-507.49534	7.77278	855.07726	-130.52893	17.85474	838.04526	-319.07338	16.26360	859.55100	-146.27879	33.51848	849.49603	-312.55034	
20	0.19000000	164.11027	497.83769	-104.06795	211.10294	404.84137	-118.79112	147.83333	89.00153	-135.90470	85.71097	58.89230	-184.81393	268.33406	44.60940	-101.17253	300.15124	74.79780	-158.05513	17.84199	452.58008	-384.30571	-18.69673	362.95639	-369.76355	-327.97750	240.63812	-348.83840	-388.54196	293.43244	-293.88121	-358.46645	118.44174	-379.06477	-308.95801	87.07863	-329.98456	209.99896	292.02402	-126.53781	151.08113	401.27277	-73.01213	142.92280	286.52958	-76.05613	-52.02817	436.19292	-405.51567	-159.32270	378.01047	-406.99493	126.47388	778.76967	-69.71247	166.68071	676.97500	-91.90015	130.46516	631.62896	-56.32656	33.85593	734.98117	-42.18442	74.16090	629.20807	-65.71292	96.18068	703.42512	-391.72094	113.09926	565.73723	-373.44132	-6.35992	686.90877	-427.22066	6.70058	556.75064	-398.51129	103.02890	949.38271	-106.92423	-106.55083	965.71798	-201.78251	108.30919	925.52186	-359.48280	-96.52230	959.51792	-297.80316	-80.96380	1419.04075	-199.09020	-24.91277	1352.21255	-33.14111	22.88500	1415.34064	-345.51089	44.46492	1345.81660	-170.58551	51.42005	1355.16912	-214.76105	14.43838	1216.30939	1.30960	-61.08601	1024.69194	-73.81926	-65.73108	1028.36357	-6.13945	-19.07927	960.26470	22.19198	34.18055	796.62002	-6.21441	-10.75647	795.94913	21.32707	66.53231	1283.80753	-417.04457	-12.44655	1081.81485	-410.33390	24.83620	1101.12657	-478.46192	80.23943	1046.48166	-478.81875	128.37365	874.71237	-461.05853	107.71199	881.15867	-507.47660	19.75208	857.12839	-129.55888	30.13704	840.52526	-318.11984	27.87865	862.57697	-144.76289	45.24578	851.82766	-310.99794	
21	0.20000000	169.08580	497.59708	-103.22262	214.76885	404.10691	-117.76380	147.86318	89.07513	-136.14211	85.78902	58.97953	-184.86182	268.35920	44.59500	-101.06042	300.19928	74.48709	-158.00921	43.67561	454.89038	-383.79047	7.75228	365.11477	-368.95986	-301.48969	244.06485	-348.05956	-363.80248	294.73856	-292.60660	-328.55193	122.52999	-380.87189	-279.06459	91.23068	-331.73117	212.20605	291.32907	-125.71440	154.07875	401.31104	-72.71633	144.42160	286.66194	-75.98320	-25.23158	438.58370	-404.53236	-132.78577	380.77615	-406.03295	136.38297	779.29278	-68.77822	174.96381	676.63028	-91.22738	137.82217	631.99566	-55.68649	41.94866	736.45934	-42.27848	81.24429	630.34209	-65.33691	114.09536	707.50688	-390.11734	135.05423	570.28260	-372.12345	12.07558	688.00770	-426.19501	29.20401	558.17984	-397.84772	114.40071	951.41220	-105.73172	-94.88361	967.97882	-200.54431	119.93784	928.69593	-358.52949	-84.90565	961.68266	-296.38308	-68.06424	1421.89341	-198.03905	-11.78004	1355.09352	-32.15252	35.35662	1417.79511	-344.70060	57.14102	1348.26433	-169.74849	64.14624	1357.62459	-213.93688	27.97890	1219.18356	1.74316	-47.34460	1027.29451	-72.32232	-51.13399	1031.00790	-4.63136	-3.65667	963.04982	23.05666	49.24455	799.29462	-6.73585	5.26134	798.83410	22.68847	78.76779	1286.10590	-416.10945	-1.06099	1084.33196	-409.68070	36.26062	1103.59608	-477.77107	91.36281	1048.80533	-478.48197	139.12885	876.86754	-460.99417	118.32750	883.41833	-507.38829	31.52036	859.13960	-128.72693	41.92522	843.29290	-317.34383	39.31208	865.34527	-143.55357	56.62975	854.41273	-309.87044	
22	0.21000000	173.69113	497.45169	-102.59620	218.09594	403.51415	-117.01621	147.93312	89.20165	-136.37109	85.88437	59.08910	-184.91271	268.40166	44.58793	-100.96598	300.26494	74.19211	-157.97042	69.23928	457.93766	-383.09193	34.37624	367.81561	-367.95933	-274.26275	246.22653	-347.26958	-338.59199	294.51348	-291.48364	-297.20746	125.17182	-382.44297	-247.58172	94.30914	-333.15152	214.22512	290.78704	-125.11692	156.91649	401.40844	-72.47536	145.95351	286.86686	-75.88368	1.27950	441.32761	-403.47121	-106.12477	383.25361	-405.00093	145.82651	779.81305	-68.13969	182.83164	676.39076	-90.77103	144.86535	632.38960	-55.20431	49.50685	737.84519	-42.29421	87.89356	631.49240	-65.04945	131.74968	712.01733	-388.53775	156.65660	575.37022	-370.76570	30.34453	689.60069	-425.16247	51.47010	560.22061	-397.07836	125.64455	953.34967	-104.63933	-83.40752	970.41195	-199.07606	131.30129	932.02466	-357.74702	-73.56092	964.28779	-294.73924	-55.16415	1424.85482	-197.08939	1.36837	1358.27964	-31.29819	47.64523	1420.26430	-344.10168	69.70071	1350.83996	-169.09758	76.74593	1360.18355	-213.30211	41.44800	1222.37699	2.08866	-33.80807	1030.14193	-70.63472	-36.59007	1033.98519	-2.90015	11.72945	966.14856	24.02453	63.91760	802.28489	-7.15660	21.01100	802.08870	24.31251	90.73793	1288.39922	-415.36245	10.16709	1086.80969	-409.06270	47.53025	1106.00799	-477.10283	102.36839	1051.09697	-478.11894	149.86152	879.03970	-460.88207	128.82282	885.62776	-507.20959	43.08770	861.15329	-127.99341	53.28908	846.30161	-316.69487	50.60794	867.88678	-142.60843	67.74228	857.23200	-309.08117	
23	0.22000000	177.95960	497.37784	-102.16641	221.15924	403.03485	-116.57634	148.04608	89.36535	-136.60045	85.99783	59.20515	-184.97357	268.45075	44.57954	-100.89085	300.35463	73.90732	-157.95077	94.50347	461.62320	-382.20429	61.13623	370.99587	-366.78409	-246.43917	247.08568	-346.54317	-312.81284	292.83520	-290.57038	-264.86088	126.32897	-383.64973	-214.91736	96.25114	-334.16648	216.14380	290.37131	-124.78453	159.72424	401.52248	-72.26534	147.64440	287.09215	-75.74718	27.44842	444.34474	-402.36682	-79.36413	385.34654	-403.98353	154.75674	780.27897	-67.68274	190.30538	676.21295	-90.42725	151.57274	632.76593	-54.82604	56.81848	739.20780	-42.07625	94.17320	632.65929	-64.80528	149.10244	716.87820	-387.02305	177.86622	580.91998	-369.38912	48.40197	691.60583	-424.14329	73.42854	562.79517	-396.23397	136.78822	955.22577	-103.62678	-72.08342	972.99849	-197.45660	142.45147	935.45002	-357.04098	-62.42985	967.25173	-292.96642	-42.31458	1427.87526	-196.25569	14.48737	1361.72968	-30.58164	59.78228	1422.72837	-343.67609	82.14334	1353.53121	-168.61040	89.21263	1362.81583	-212.83650	54.86123	1225.87526	2.39606	-20.46622	1033.22817	-68.74554	-22.10847	1037.27338	-0.94809	27.01680	969.52624	25.11625	78.28884	805.61293	-7.28671	36.42986	805.68430	26.14845	102.43677	1290.67150	-414.78507	21.28523	1089.24658	-408.41346	58.64175	1108.35420	-476.42897	113.26132	1053.35521	-477.70217	160.56491	881.21677	-460.70026	139.22025	887.78790	-506.92162	54.46469	863.18986	-127.32587	64.31536	849.48894	-316.12814	61.79154	870.26508	-141.85627	78.63378	860.24507	-308.50962	
24	0.23000000	181.89196	497.34085	-101.87720	223.99991	402.63516	-116.42277	148.19448	89.54805	-136.83573	86.12388	59.30394	-185.04980	268.49461	44.56987	-100.83462	300.46011	73.64014	-157.95660	119.43409	465.84409	-381.12510	87.95309	374.59321	-365.46549	-218.10823	246.64038	-345.92615	-286.44922	289.72549	-289.92051	-231.68638	126.02688	-384.42475	-181.25443	97.09971	-334.72230	218.00075	290.04817	-124.71065	162.54873	401.61649	-72.06472	149.52319	287.29277	-75.57124	53.20159	447.57371	-401.22971	-52.57069	387.01049	-403.02517	163.17747	780.62259	-67.28201	197.40195	676.02819	-90.08534	157.90251	633.07770	-54.48981	64.08093	740.59056	-41.57900	100.14204	633.83970	-64.57976	166.10396	722.00814	-385.60818	198.63897	586.84716	-368.01421	66.18911	693.93160	-423.15684	95.00054	565.81858	-395.34595	147.84342	957.05166	-102.67111	-60.87640	975.70299	-195.77601	153.42987	938.91869	-356.33100	-51.45775	970.45259	-291.16337	-29.58769	1430.91425	-195.56544	27.53051	1365.39568	-30.00725	71.78779	1425.16305	-343.39561	94.47493	1356.31584	-168.26739	101.54758	1365.49083	-212.52388	68.22489	1229.65159	2.71112	-7.32445	1036.55021	-66.64545	-7.71215	1040.84688	1.20531	42.12703	973.14757	26.34570	92.46998	809.27725	-6.97737	51.48359	809.57359	28.12524	113.86755	1292.90111	-414.36225	32.34141	1091.62806	-407.66006	69.58348	1110.61392	-475.72194	124.03716	1055.56902	-477.22216	171.24209	883.38342	-460.43497	149.54399	889.89309	-506.51339	65.66028	865.24735	-126.70315	75.09438	852.78159	-315.61063	72.86481	872.56380	-141.21113	89.33425	863.38946	-308.02551	
